<?xml version="1.0" encoding="UTF-8"?>
<svg version="1.1" xmlns="http://www.w3.org/2000/svg" width="128" height="128">
<path d="M0 0 C42.24 0 84.48 0 128 0 C128 42.24 128 84.48 128 128 C85.76 128 43.52 128 0 128 C0 85.76 0 43.52 0 0 Z " fill="#FBFCFD" transform="translate(0,0)"/>
<path d="M0 0 C6.05323715 5.32845931 12.5525908 16.26437408 13.23535156 24.49267578 C13.28124597 26.88719005 13.309526 29.28086332 13.32421875 31.67578125 C13.34484375 32.49304687 13.36546875 33.3103125 13.38671875 34.15234375 C13.45966694 45.67815754 8.79656585 55.83402497 1.01171875 64.23828125 C-8.3779885 73.20474627 -20.06444622 76.97241868 -32.86157227 76.91650391 C-44.17404395 76.6323561 -53.42757277 70.86684736 -61.61328125 63.36328125 C-70.80334826 53.68165251 -73.33210564 42.4877067 -73.29467773 29.5690918 C-72.96029352 18.03080564 -67.83837375 8.8567271 -60.046875 0.546875 C-42.14378593 -16.19884266 -18.83507479 -14.17406236 0 0 Z " fill="#F6F7F8" transform="translate(93.92578125,29.44921875)"/>
<path d="M0 0 C6.05323715 5.32845931 12.5525908 16.26437408 13.23535156 24.49267578 C13.28124597 26.88719005 13.309526 29.28086332 13.32421875 31.67578125 C13.34484375 32.49304687 13.36546875 33.3103125 13.38671875 34.15234375 C13.45966694 45.67815754 8.79656585 55.83402497 1.01171875 64.23828125 C-8.3779885 73.20474627 -20.06444622 76.97241868 -32.86157227 76.91650391 C-44.17404395 76.6323561 -53.42757277 70.86684736 -61.61328125 63.36328125 C-70.80334826 53.68165251 -73.33210564 42.4877067 -73.29467773 29.5690918 C-72.96029352 18.03080564 -67.83837375 8.8567271 -60.046875 0.546875 C-42.14378593 -16.19884266 -18.83507479 -14.17406236 0 0 Z M-31.92578125 -4.44921875 C-31.92578125 -2.46921875 -31.92578125 -0.48921875 -31.92578125 1.55078125 C-33.08078125 1.63328125 -34.23578125 1.71578125 -35.42578125 1.80078125 C-44.24020656 2.96465783 -50.42971523 7.71878448 -55.92578125 14.55078125 C-59.54912434 20.15687383 -61.65428403 24.84855572 -60.92578125 31.55078125 C-62.90578125 31.55078125 -64.88578125 31.55078125 -66.92578125 31.55078125 C-67.25578125 32.87078125 -67.58578125 34.19078125 -67.92578125 35.55078125 C-65.61578125 35.55078125 -63.30578125 35.55078125 -60.92578125 35.55078125 C-61.02890625 36.33453125 -61.13203125 37.11828125 -61.23828125 37.92578125 C-60.59700998 45.36452796 -56.19468234 52.39896685 -50.92578125 57.55078125 C-44.72450293 62.18266752 -39.6628453 64.30119854 -31.92578125 64.55078125 C-31.92578125 67.19078125 -31.92578125 69.83078125 -31.92578125 72.55078125 C-29.94578125 72.05578125 -29.94578125 72.05578125 -27.92578125 71.55078125 C-27.92578125 69.24078125 -27.92578125 66.93078125 -27.92578125 64.55078125 C-26.77078125 64.46828125 -25.61578125 64.38578125 -24.42578125 64.30078125 C-17.09425915 63.36649879 -11.78242272 60.08195625 -6.92578125 54.55078125 C-6.24515625 53.80828125 -5.56453125 53.06578125 -4.86328125 52.30078125 C-1.40124823 47.38692793 1.87324671 41.74324791 1.07421875 35.55078125 C3.05421875 35.55078125 5.03421875 35.55078125 7.07421875 35.55078125 C7.07421875 34.23078125 7.07421875 32.91078125 7.07421875 31.55078125 C5.09421875 31.55078125 3.11421875 31.55078125 1.07421875 31.55078125 C1.01234375 30.25140625 0.95046875 28.95203125 0.88671875 27.61328125 C-0.02191134 19.68455017 -4.22332867 13.44155747 -9.97265625 8.0546875 C-15.3473303 3.91618848 -21.24768516 2.11912985 -27.92578125 1.55078125 C-27.92578125 -0.42921875 -27.92578125 -2.40921875 -27.92578125 -4.44921875 C-29.24578125 -4.44921875 -30.56578125 -4.44921875 -31.92578125 -4.44921875 Z " fill="#093044" transform="translate(93.92578125,29.44921875)"/>
<path d="M0 0 C6.05323715 5.32845931 12.5525908 16.26437408 13.23535156 24.49267578 C13.28124597 26.88719005 13.309526 29.28086332 13.32421875 31.67578125 C13.34484375 32.49304687 13.36546875 33.3103125 13.38671875 34.15234375 C13.45966694 45.67815754 8.79656585 55.83402497 1.01171875 64.23828125 C-8.3779885 73.20474627 -20.06444622 76.97241868 -32.86157227 76.91650391 C-44.17404395 76.6323561 -53.42757277 70.86684736 -61.61328125 63.36328125 C-70.80334826 53.68165251 -73.33210564 42.4877067 -73.29467773 29.5690918 C-72.96029352 18.03080564 -67.83837375 8.8567271 -60.046875 0.546875 C-42.14378593 -16.19884266 -18.83507479 -14.17406236 0 0 Z M-61.67578125 5.36328125 C-70.23369133 15.59296911 -71.81581518 26.45426574 -71.14355469 39.39111328 C-70.16039662 49.14113147 -64.86361128 57.84853119 -57.92578125 64.55078125 C-46.81846675 73.22990883 -36.92219774 75.61588904 -22.92578125 74.55078125 C-11.80822867 72.82965386 -2.25283189 66.32095712 4.34765625 57.34375 C10.12625281 47.99602026 11.87673082 39.4471118 11.07421875 28.55078125 C10.74421875 28.55078125 10.41421875 28.55078125 10.07421875 28.55078125 C9.88859375 30.00484375 9.88859375 30.00484375 9.69921875 31.48828125 C9.38984375 33.00421875 9.38984375 33.00421875 9.07421875 34.55078125 C8.08421875 35.04578125 8.08421875 35.04578125 7.07421875 35.55078125 C7.07421875 34.23078125 7.07421875 32.91078125 7.07421875 31.55078125 C5.09421875 31.55078125 3.11421875 31.55078125 1.07421875 31.55078125 C1.01234375 30.25140625 0.95046875 28.95203125 0.88671875 27.61328125 C-0.02191134 19.68455017 -4.22332867 13.44155747 -9.97265625 8.0546875 C-15.3473303 3.91618848 -21.24768516 2.11912985 -27.92578125 1.55078125 C-27.92578125 -0.42921875 -27.92578125 -2.40921875 -27.92578125 -4.44921875 C-28.91578125 -4.77921875 -29.90578125 -5.10921875 -30.92578125 -5.44921875 C-31.42078125 -6.93421875 -31.42078125 -6.93421875 -31.92578125 -8.44921875 C-44.53596054 -9.27162175 -53.28197881 -3.59252524 -61.67578125 5.36328125 Z " fill="#093144" transform="translate(93.92578125,29.44921875)"/>
<path d="M0 0 C7.57929111 1.68428691 12.14158934 4.97557078 17 11 C21.00869322 17.72425959 21.88287121 24.25947796 21 32 C18.25774994 40.84183431 12.58518444 45.76952914 5.25 50.9375 C0.18236062 52.59422826 -4.72603337 52.67311496 -10 52 C-13.75141909 49.89920531 -15.35464497 47.88838176 -17 44 C-17.7300863 39.80902384 -17.8292008 35.82085726 -16.04296875 31.8984375 C-12.4185996 26.9893496 -8.34830084 26.01260399 -2.56640625 24.74609375 C1.17970408 23.65704189 2.65120495 22.05343357 5 19 C6.72304876 15.55390248 6.37297068 11.77551018 6 8 C4.47751335 4.66502924 2.58494669 2.53426146 0 0 Z " fill="#27313C" transform="translate(69,37)"/>
<path d="M0 0 C2.5 0.125 2.5 0.125 3.5 1.125 C3.625 3.625 3.625 3.625 3.5 6.125 C2.5 7.125 2.5 7.125 0 7.25 C-2.5 7.125 -2.5 7.125 -3.5 6.125 C-17.257799 5.25148895 -27.70871407 10.93778526 -38.05419922 19.72363281 C-40.53998913 22.13302729 -42.35873313 24.88856211 -44.1875 27.8125 C-44.57615234 28.42464355 -44.96480469 29.03678711 -45.36523438 29.66748047 C-48.39362971 34.60087577 -50.30904107 39.44667796 -51.5 45.125 C-51.77070312 46.04925781 -51.77070312 46.04925781 -52.046875 46.9921875 C-55.0336323 61.05054512 -50.69155971 75.12770607 -43.5 87.125 C-36.4051224 97.60358846 -24.74149148 104.47042243 -12.5 107.125 C-8.3417382 107.55972737 -4.64643193 107.36892169 -0.5625 106.5 C0.118125 106.37625 0.79875 106.2525 1.5 106.125 C2.49 107.115 2.49 107.115 3.5 108.125 C3.125 110.75 3.125 110.75 2.5 113.125 C0.025 113.62 0.025 113.62 -2.5 114.125 C-3.16 113.135 -3.82 112.145 -4.5 111.125 C-7.2071715 110.50082316 -7.2071715 110.50082316 -10.375 110.25 C-21.48171556 108.74213464 -30.1737824 104.56715975 -38.5 97.125 C-39.12648438 96.57972656 -39.75296875 96.03445312 -40.3984375 95.47265625 C-50.59960602 86.00650642 -55.99818523 72.86216001 -56.76171875 59.125 C-57.3253021 43.29278083 -52.57772732 31.01383724 -42.25 18.9375 C-31.98152651 7.98102158 -21.06094109 3.21867136 -6.30859375 1.51953125 C-3.32321123 1.10016597 -2.92258182 0.14612909 0 0 Z " fill="#15718D" transform="translate(66.5,5.875)"/>
<path d="M0 0 C6.05323715 5.32845931 12.5525908 16.26437408 13.23535156 24.49267578 C13.28124597 26.88719005 13.309526 29.28086332 13.32421875 31.67578125 C13.34484375 32.49304687 13.36546875 33.3103125 13.38671875 34.15234375 C13.45966694 45.67815754 8.79656585 55.83402497 1.01171875 64.23828125 C-8.3779885 73.20474627 -20.06444622 76.97241868 -32.86157227 76.91650391 C-44.17404395 76.6323561 -53.42757277 70.86684736 -61.61328125 63.36328125 C-70.80334826 53.68165251 -73.33210564 42.4877067 -73.29467773 29.5690918 C-72.96029352 18.03080564 -67.83837375 8.8567271 -60.046875 0.546875 C-42.14378593 -16.19884266 -18.83507479 -14.17406236 0 0 Z M-63.35546875 7.37109375 C-70.88357521 17.82055496 -72.19224318 28.99122714 -70.92578125 41.55078125 C-68.32072409 52.93268986 -62.17252623 62.00051434 -52.48828125 68.48828125 C-41.51836252 74.85113425 -30.22610223 76.71093145 -17.67578125 73.48828125 C-6.2238116 69.37926889 1.78147439 62.22537055 7.67578125 51.6875 C12.38736823 41.32990515 13.40625768 27.77969192 9.51171875 16.92578125 C3.97237397 5.74991021 -5.05203076 -3.40319761 -16.92578125 -7.44921875 C-35.14139614 -13.06142404 -51.32492651 -7.00960092 -63.35546875 7.37109375 Z " fill="#78848E" transform="translate(93.92578125,29.44921875)"/>
<path d="M0 0 C0 0.33 0 0.66 0 1 C-1.22074219 0.95359375 -2.44148438 0.9071875 -3.69921875 0.859375 C-16.90703561 0.50557017 -28.60563611 1.12303061 -39.07421875 10.15625 C-50.66142684 21.24988533 -53.73896523 33.40299101 -55 49 C-55.33 49 -55.66 49 -56 49 C-56.66301003 34.32169454 -54.73846009 23.65030501 -45 12 C-33.03941954 -0.75629475 -16.6323045 -5.02107306 0 0 Z " fill="#849099" transform="translate(77,20)"/>
<path d="M0 0 C3.85876143 -0.2968278 6.73698603 0.16388689 10.3125 1.5 C15.93161504 3.50885732 21.12104162 3.61254434 26.9375 2.375 C27.9584375 2.189375 27.9584375 2.189375 29 2 C29.66 2.66 30.32 3.32 31 4 C30.625 6.625 30.625 6.625 30 9 C28.35 9.33 26.7 9.66 25 10 C24.34 9.01 23.68 8.02 23 7 C20.22636283 6.33901989 20.22636283 6.33901989 17 6.0625 C10.82467525 5.2588148 5.62877849 3.61744553 0 1 C0 0.67 0 0.34 0 0 Z " fill="#277A95" transform="translate(39,110)"/>
<path d="M0 0 C0.99 0 1.98 0 3 0 C2.08121145 2.37353708 1.13338546 4.71737588 0.046875 7.01953125 C-2.41661487 12.26823542 -3.97490921 17.29456049 -5 23 C-5.66 22.34 -6.32 21.68 -7 21 C-7.33 26.28 -7.66 31.56 -8 37 C-8.33 37 -8.66 37 -9 37 C-9.57070219 23.62020424 -8.48123249 12.99923404 -1.24609375 1.328125 C-0.83488281 0.88984375 -0.42367188 0.4515625 0 0 Z " fill="#126F8C" transform="translate(19,32)"/>
<path d="M0 0 C0.33 0 0.66 0 1 0 C1.01417969 0.71542969 1.02835938 1.43085937 1.04296875 2.16796875 C1.61197585 14.05560361 5.18824742 25.61173276 14 34 C17.54056042 36.5753874 21.18531609 38.85467143 25 41 C23.234375 41.6484375 23.234375 41.6484375 21 42 C12.14477813 37.72121632 4.43719029 28.068745 1 19 C-0.30780048 15.15403413 -0.11179999 11.26226064 -0.0625 7.25 C-0.05798828 6.55261719 -0.05347656 5.85523437 -0.04882812 5.13671875 C-0.0371002 3.42444197 -0.01916653 1.71220967 0 0 Z " fill="#78848E" transform="translate(22,59)"/>
<path d="M0 0 C0.99 0.33 1.98 0.66 3 1 C2.55269531 1.46148438 2.10539062 1.92296875 1.64453125 2.3984375 C-8.43598428 13.27421759 -10.83690704 24.61437654 -12 39 C-12.33 39 -12.66 39 -13 39 C-13.67266697 24.1079007 -11.52770006 13.99176043 -2 2 C-1.34 1.34 -0.68 0.68 0 0 Z " fill="#7C8892" transform="translate(34,30)"/>
<path d="M0 0 C0.33 0 0.66 0 1 0 C1.33 8.58 1.66 17.16 2 26 C0 25 0 25 -1 22 C-1.09278335 20.38486949 -1.13068503 18.76622945 -1.1328125 17.1484375 C-1.13474609 15.74851562 -1.13474609 15.74851562 -1.13671875 14.3203125 C-1.13091797 12.86238281 -1.13091797 12.86238281 -1.125 11.375 C-1.12886719 10.3953125 -1.13273438 9.415625 -1.13671875 8.40625 C-1.13542969 7.47554687 -1.13414063 6.54484375 -1.1328125 5.5859375 C-1.13168457 4.7304834 -1.13055664 3.8750293 -1.12939453 2.99365234 C-1 1 -1 1 0 0 Z " fill="#086987" transform="translate(12,52)"/>
<path d="M0 0 C2.0625 0.4375 2.0625 0.4375 4 1 C3.11588492 5.53785599 2.13931534 10.05228102 1.125 14.5625 C0.96386719 15.31724609 0.80273438 16.07199219 0.63671875 16.84960938 C-0.2797082 20.88117753 -1.10738776 23.88424338 -4 27 C-3.48657917 24.28692326 -2.90259652 21.62340538 -2.2109375 18.94921875 C-0.55110567 12.47277214 0.26258599 7.56544716 -1 1 C-0.67 0.67 -0.34 0.34 0 0 Z " fill="#92BECB" transform="translate(115,59)"/>
<path d="M0 0 C1.7866789 2.68001835 2.9322137 5.03128744 4.125 8 C4.47820313 8.86625 4.83140625 9.7325 5.1953125 10.625 C6 13 6 13 6 16 C5.34 16.33 4.68 16.66 4 17 C2.93919915 14.9263441 1.90190476 12.84064914 0.875 10.75 C0.29492188 9.58984375 -0.28515625 8.4296875 -0.8828125 7.234375 C-2 4 -2 4 -1.1796875 1.578125 C-0.59574219 0.79695313 -0.59574219 0.79695313 0 0 Z " fill="#197490" transform="translate(14,75)"/>
<path d="M0 0 C2.625 0.375 2.625 0.375 5 1 C5 2.98 5 4.96 5 7 C3.02 7 1.04 7 -1 7 C-1.625 4.625 -1.625 4.625 -2 2 C-1.34 1.34 -0.68 0.68 0 0 Z " fill="#3A4550" transform="translate(60,46)"/>
<path d="M0 0 C5.65639348 0.79051361 11.29701068 1.66602679 16.9375 2.5625 C18.24944336 2.77036133 18.24944336 2.77036133 19.58789062 2.98242188 C21.72533526 3.32114261 23.86267815 3.66050532 26 4 C26 4.33 26 4.66 26 5 C16.52395508 5.42324766 8.60159081 5.63162582 0 1 C0 0.67 0 0.34 0 0 Z " fill="#8A959D" transform="translate(45,101)"/>
<path d="M0 0 C1.66611905 -0.042721 3.33382885 -0.04063832 5 0 C6 1 6 1 6.0625 3.5625 C6.041875 4.366875 6.02125 5.17125 6 6 C3.625 6.625 3.625 6.625 1 7 C0.34 6.34 -0.32 5.68 -1 5 C-0.625 2.375 -0.625 2.375 0 0 Z " fill="#EDF0F1" transform="translate(62,73)"/>
<path d="M0 0 C1.5625 1.0625 1.5625 1.0625 3 3 C2.6875 6.6875 2.6875 6.6875 2 10 C1.34 9.34 0.68 8.68 0 8 C-0.33 13.28 -0.66 18.56 -1 24 C-1.33 24 -1.66 24 -2 24 C-2.0544207 21.31222198 -2.09387266 18.62556788 -2.125 15.9375 C-2.14175781 15.18533203 -2.15851562 14.43316406 -2.17578125 13.65820312 C-2.21865121 8.70672291 -1.58399375 4.69585549 0 0 Z " fill="#33849D" transform="translate(12,45)"/>
<path d="M0 0 C1.32 0.33 2.64 0.66 4 1 C3.67 2.65 3.34 4.3 3 6 C1.35 6.33 -0.3 6.66 -2 7 C-2.33 6.01 -2.66 5.02 -3 4 C-1.5625 1.8125 -1.5625 1.8125 0 0 Z " fill="#12718D" transform="translate(66,113)"/>
<path d="M0 0 C0.78375 0.04125 1.5675 0.0825 2.375 0.125 C2.417721 1.79111905 2.41563832 3.45882885 2.375 5.125 C1.375 6.125 1.375 6.125 -1.1875 6.1875 C-2.3940625 6.1565625 -2.3940625 6.1565625 -3.625 6.125 C-4.25 4.25 -4.25 4.25 -4.625 2.125 C-2.625 0.125 -2.625 0.125 0 0 Z " fill="#0B6C8A" transform="translate(67.625,6.875)"/>
<path d="M0 0 C0.33 0 0.66 0 1 0 C1.04898437 0.7734375 1.09796875 1.546875 1.1484375 2.34375 C1.58747623 8.46001367 2.30007536 14.10692791 4 20 C3.01 19.67 2.02 19.34 1 19 C-0.58466433 15.3416892 -0.11064817 11.16852005 -0.0625 7.25 C-0.05798828 6.55261719 -0.05347656 5.85523437 -0.04882812 5.13671875 C-0.0371002 3.42444197 -0.01916653 1.71220967 0 0 Z " fill="#677783" transform="translate(22,59)"/>
<path d="M0 0 C1.2065625 0.0309375 1.2065625 0.0309375 2.4375 0.0625 C1.509375 0.4646875 1.509375 0.4646875 0.5625 0.875 C-1.8620233 2.01806848 -1.8620233 2.01806848 -3.5625 5.0625 C-7.0625 5.4375 -7.0625 5.4375 -10.5625 5.0625 C-11.2225 4.0725 -11.8825 3.0825 -12.5625 2.0625 C-11.60537109 1.97162109 -11.60537109 1.97162109 -10.62890625 1.87890625 C-9.38947266 1.75322266 -9.38947266 1.75322266 -8.125 1.625 C-7.30128906 1.54378906 -6.47757813 1.46257813 -5.62890625 1.37890625 C-2.92478859 0.96485421 -2.90505598 0.07085502 0 0 Z " fill="#277C96" transform="translate(66.5625,5.9375)"/>
<path d="M0 0 C1.98 0.495 1.98 0.495 4 1 C3.67 2.65 3.34 4.3 3 6 C1.68 5.67 0.36 5.34 -1 5 C-0.67 3.35 -0.34 1.7 0 0 Z " fill="#15718E" transform="translate(115,59)"/>
<path d="M0 0 C-1.43457328 0.9834496 -2.87277406 1.96160921 -4.3125 2.9375 C-5.11300781 3.48277344 -5.91351563 4.02804688 -6.73828125 4.58984375 C-9 6 -9 6 -12 7 C-10.84625061 3.53875184 -10.12298029 3.11687417 -7.125 1.25 C-6.42632812 0.80140625 -5.72765625 0.3528125 -5.0078125 -0.109375 C-3 -1 -3 -1 0 0 Z " fill="#7D8892" transform="translate(92,96)"/>
<path d="M0 0 C1.9451 2.91765 2.45276317 4.62537285 3 8 C2.01 8.33 1.02 8.66 0 9 C-0.66 6.69 -1.32 4.38 -2 2 C-1.34 1.34 -0.68 0.68 0 0 Z " fill="#287D97" transform="translate(14,75)"/>
<path d="M0 0 C3.37503669 1.1858237 5.64722731 2.27573689 8 5 C4.28400809 5.20086443 3.22791555 5.1519437 0 3 C0 2.01 0 1.02 0 0 Z " fill="#1A738F" transform="translate(34,105)"/>
<path d="M0 0 C1.65 0 3.3 0 5 0 C5 0.66 5 1.32 5 2 C2.35261084 3.4606285 1.10551666 4 -2 4 C-1.34 2.68 -0.68 1.36 0 0 Z " fill="#0E6D8A" transform="translate(39,13)"/>
<path d="M0 0 C-1.32 1.32 -2.64 2.64 -4 4 C-5.98 3.34 -7.96 2.68 -10 2 C-10 1.67 -10 1.34 -10 1 C-3.71428571 -1.42857143 -3.71428571 -1.42857143 0 0 Z " fill="#37869E" transform="translate(68,113)"/>
<path d="M0 0 C0.33 0 0.66 0 1 0 C1.25 6.625 1.25 6.625 -1 10 C-1.66 9.67 -2.32 9.34 -3 9 C-2.01 6.03 -1.02 3.06 0 0 Z " fill="#6C7B85" transform="translate(104,71)"/>
<path d="M0 0 C2.97 0.99 5.94 1.98 9 3 C7.68 3.99 6.36 4.98 5 6 C3.35 4.02 1.7 2.04 0 0 Z " fill="#36424E" transform="translate(69,37)"/>
</svg>
